# xmcd CD database file
#
# Track frame offsets:
#	150
#	16310
#	34569
#	57249
#	77211
#	98217
#	110266
#	124574
#	144630
#	173286
#
# Disc length: 2552 seconds
#
# Revision: 8
# Processed by: cddbd v1.5.1PL2 Copyright (c) Steve Scherf et al.
# Submitted via: CDex 1.51
#
DISCID=7209f60a
DTITLE=ロールスロイズ - Soul is equipped normally
DYEAR=2005
DGENRE=Rock
TTITLE0=エルサウンドロール
TTITLE1=開拓魂
TTITLE2=シンプル
TTITLE3=たりない
TTITLE4=フロッグインザウェル
TTITLE5=ニンジュミー
TTITLE6=京橋
TTITLE7=俺よ止まるな
TTITLE8=パパのぬけがら
TTITLE9=ロールスロイズ
EXTD=YEAR: 2005
EXTT0=
EXTT1=
EXTT2=
EXTT3=
EXTT4=
EXTT5=
EXTT6=
EXTT7=
EXTT8=
EXTT9=
PLAYORDER=
